HIERARCHY
ROOT newVegas:Hips
{
	OFFSET 0.000000 96.479958 0.000000
	CHANNELS 6 Xposition Yposition Zposition Xrotation Yrotation Zrotation
	JOINT newVegas:Pelvis
	{
		OFFSET 0.000000 0.000000 0.000000
		CHANNELS 3 Xrotation Yrotation Zrotation
		JOINT newVegas:LeftUpLeg
		{
			OFFSET 18.735201 -5.666702 -4.541200
			CHANNELS 3 Xrotation Yrotation Zrotation
			JOINT newVegas:LeftLeg
			{
				OFFSET -0.021200 -31.938179 0.493100
				CHANNELS 3 Xrotation Yrotation Zrotation
				JOINT newVegas:LeftFoot
				{
					OFFSET 0.021200 -31.938179 -4.336299
					CHANNELS 3 Xrotation Yrotation Zrotation
					JOINT newVegas:LeftToeBase
					{
						OFFSET 0.943001 -26.722000 15.023500
						CHANNELS 3 Xrotation Yrotation Zrotation
						End Site
						{
							OFFSET 0.000000 30.670183 0.000000
						}
					}
				}
				JOINT newVegas:Left_PantLeg
				{
					OFFSET 0.663870 -9.044666 -1.108900
					CHANNELS 3 Xrotation Yrotation Zrotation
					End Site
					{
						OFFSET 1.415995 20.635357 0.000000
					}
				}
			}
		}
		JOINT newVegas:RightUpLeg
		{
			OFFSET -18.735201 -5.666702 -4.541200
			CHANNELS 3 Xrotation Yrotation Zrotation
			JOINT newVegas:RightLeg
			{
				OFFSET 0.018946 -31.938133 0.493100
				CHANNELS 3 Xrotation Yrotation Zrotation
				JOINT newVegas:RightFoot
				{
					OFFSET -0.018946 -31.938126 -4.336299
					CHANNELS 3 Xrotation Yrotation Zrotation
					JOINT newVegas:RightToeBase
					{
						OFFSET -0.943001 -26.722004 15.023500
						CHANNELS 3 Xrotation Yrotation Zrotation
						End Site
						{
							OFFSET 0.000000 30.670187 0.000000
						}
					}
				}
				JOINT newVegas:Right_PantLeg
				{
					OFFSET -0.661674 -9.044716 -1.108900
					CHANNELS 3 Xrotation Yrotation Zrotation
					End Site
					{
						OFFSET -1.415958 20.635269 0.000000
					}
				}
			}
		}
	}
	JOINT newVegas:Spine
	{
		OFFSET 0.000000 10.199997 -0.299500
		CHANNELS 3 Xrotation Yrotation Zrotation
		JOINT newVegas:Spine1
		{
			OFFSET 0.000000 11.900002 -1.516600
			CHANNELS 3 Xrotation Yrotation Zrotation
			JOINT newVegas:Spine2
			{
				OFFSET 0.000000 13.600006 -2.842500
				CHANNELS 3 Xrotation Yrotation Zrotation
				JOINT newVegas:Neck
				{
					OFFSET 0.000000 9.624100 -2.890100
					CHANNELS 3 Xrotation Yrotation Zrotation
					JOINT newVegas:Head
					{
						OFFSET 0.000000 14.068802 -1.351900
						CHANNELS 3 Xrotation Yrotation Zrotation
						JOINT newVegas:Hair_Back
						{
							OFFSET 0.000000 3.231903 -17.524799
							CHANNELS 3 Xrotation Yrotation Zrotation
							End Site
							{
								OFFSET 0.000000 19.849884 0.000000
							}
						}
						JOINT newVegas:Hair_Front
						{
							OFFSET 0.000000 31.260406 4.573800
							CHANNELS 3 Xrotation Yrotation Zrotation
							JOINT newVegas:Hair_Front1
							{
								OFFSET 0.000000 2.284103 11.993300
								CHANNELS 3 Xrotation Yrotation Zrotation
								JOINT newVegas:Hair_Front2
								{
									OFFSET 0.000000 2.284103 11.993300
									CHANNELS 3 Xrotation Yrotation Zrotation
									End Site
									{
										OFFSET 0.000000 12.208862 0.000000
									}
								}
							}
						}
						JOINT newVegas:Jowel
						{
							OFFSET 0.000000 -7.458206 6.864100
							CHANNELS 3 Xrotation Yrotation Zrotation
							End Site
							{
								OFFSET 0.000000 19.849884 0.000000
							}
						}
					}
				}
				JOINT newVegas:LeftShoulder
				{
					OFFSET 15.263000 10.923401 -0.547700
					CHANNELS 3 Xrotation Yrotation Zrotation
					JOINT newVegas:LeftArm
					{
						OFFSET 25.438599 -2.830597 -13.032500
						CHANNELS 3 Xrotation Yrotation Zrotation
						JOINT newVegas:LeftForeArm
						{
							OFFSET 29.960503 0.000000 0.000000
							CHANNELS 3 Xrotation Yrotation Zrotation
							JOINT newVegas:LeftHand
							{
								OFFSET 27.849251 0.000000 0.000000
								CHANNELS 3 Xrotation Yrotation Zrotation
								JOINT newVegas:LeftHandThumb1
								{
									OFFSET 4.487587 -3.305161 6.305391
									CHANNELS 3 Xrotation Yrotation Zrotation
									JOINT newVegas:LeftHandThumb2
									{
										OFFSET 5.480453 -3.164139 3.164143
										CHANNELS 3 Xrotation Yrotation Zrotation
										JOINT newVegas:LeftHandThumb3
										{
											OFFSET 5.159721 -2.978973 2.978967
											CHANNELS 3 Xrotation Yrotation Zrotation
											End Site
											{
												OFFSET 2.494507 5.926697 1.738678
											}
										}
									}
								}
								JOINT newVegas:LeftHandIndex1
								{
									OFFSET 18.578728 -0.527832 5.208049
									CHANNELS 3 Xrotation Yrotation Zrotation
									JOINT newVegas:LeftHandIndex2
									{
										OFFSET 3.192009 0.000000 0.000000
										CHANNELS 3 Xrotation Yrotation Zrotation
										JOINT newVegas:LeftHandIndex3
										{
											OFFSET 3.835129 0.000000 0.000000
											CHANNELS 3 Xrotation Yrotation Zrotation
											End Site
											{
												OFFSET -0.034599 3.816971 0.371180
											}
										}
									}
								}
								JOINT newVegas:LeftHandMiddle1
								{
									OFFSET 18.476105 0.000000 0.000000
									CHANNELS 3 Xrotation Yrotation Zrotation
									JOINT newVegas:LeftHandMiddle2
									{
										OFFSET 3.324875 0.000000 0.000000
										CHANNELS 3 Xrotation Yrotation Zrotation
										JOINT newVegas:LeftHandMiddle3
										{
											OFFSET 4.596550 0.000000 0.000000
											CHANNELS 3 Xrotation Yrotation Zrotation
											End Site
											{
												OFFSET 0.057701 4.578827 0.399218
											}
										}
									}
								}
								JOINT newVegas:LeftHandRing1
								{
									OFFSET 17.732719 0.121887 -4.201567
									CHANNELS 3 Xrotation Yrotation Zrotation
									JOINT newVegas:LeftHandRing2
									{
										OFFSET 2.733170 0.000000 0.000000
										CHANNELS 3 Xrotation Yrotation Zrotation
										JOINT newVegas:LeftHandRing3
										{
											OFFSET 3.178268 0.000000 0.000000
											CHANNELS 3 Xrotation Yrotation Zrotation
											End Site
											{
												OFFSET 0.119102 3.170624 0.185394
											}
										}
									}
								}
								JOINT newVegas:LeftHandPinky1
								{
									OFFSET 15.989624 -0.606689 -7.535461
									CHANNELS 3 Xrotation Yrotation Zrotation
									JOINT newVegas:LeftHandPinky2
									{
										OFFSET 2.538986 0.000000 0.000000
										CHANNELS 3 Xrotation Yrotation Zrotation
										JOINT newVegas:LeftHandPinky3
										{
											OFFSET 2.593102 0.000000 0.000000
											CHANNELS 3 Xrotation Yrotation Zrotation
											End Site
											{
												OFFSET -0.150902 2.584198 0.152708
											}
										}
									}
								}
							}
							JOINT newVegas:Left_Sleeve
							{
								OFFSET 0.267448 -0.649796 0.577675
								CHANNELS 3 Xrotation Yrotation Zrotation
								End Site
								{
									OFFSET 0.000000 15.991241 0.000000
								}
							}
							JOINT newVegas:Left_CapeC
							{
								OFFSET 15.715958 -8.608795 -6.935905
								CHANNELS 3 Xrotation Yrotation Zrotation
								JOINT newVegas:Left_CapeC1
								{
									OFFSET 0.000000 -8.688499 0.000000
									CHANNELS 3 Xrotation Yrotation Zrotation
									End Site
									{
										OFFSET 0.000000 8.688499 0.000000
									}
								}
							}
						}
						JOINT newVegas:Left_CapeB
						{
							OFFSET 26.118385 -8.608795 -7.079235
							CHANNELS 3 Xrotation Yrotation Zrotation
							JOINT newVegas:Left_CapeB1
							{
								OFFSET 0.000000 -8.688499 0.000000
								CHANNELS 3 Xrotation Yrotation Zrotation
								End Site
								{
									OFFSET 0.000000 8.688499 0.000000
								}
							}
						}
						JOINT newVegas:Left_CapeA
						{
							OFFSET 5.115639 -8.608795 -10.395809
							CHANNELS 3 Xrotation Yrotation Zrotation
							JOINT newVegas:Left_CapeA1
							{
								OFFSET 0.000000 -8.688499 0.000000
								CHANNELS 3 Xrotation Yrotation Zrotation
								End Site
								{
									OFFSET 0.000000 8.688499 0.000000
								}
							}
						}
					}
				}
				JOINT newVegas:RightShoulder
				{
					OFFSET -15.263000 10.923401 -0.547700
					CHANNELS 3 Xrotation Yrotation Zrotation
					JOINT newVegas:RightArm
					{
						OFFSET -25.438599 -2.830597 -13.032500
						CHANNELS 3 Xrotation Yrotation Zrotation
						JOINT newVegas:RightForeArm
						{
							OFFSET -29.960503 0.000000 0.000000
							CHANNELS 3 Xrotation Yrotation Zrotation
							JOINT newVegas:RightHand
							{
								OFFSET -27.849251 0.000000 0.000000
								CHANNELS 3 Xrotation Yrotation Zrotation
								JOINT newVegas:RightHandThumb1
								{
									OFFSET -4.487587 -3.305161 6.305391
									CHANNELS 3 Xrotation Yrotation Zrotation
									JOINT newVegas:RightHandThumb2
									{
										OFFSET -5.480453 -3.164139 3.164143
										CHANNELS 3 Xrotation Yrotation Zrotation
										JOINT newVegas:RightHandThumb3
										{
											OFFSET -5.159721 -2.978973 2.978967
											CHANNELS 3 Xrotation Yrotation Zrotation
											End Site
											{
												OFFSET -2.494507 5.926697 1.738678
											}
										}
									}
								}
								JOINT newVegas:RightHandIndex1
								{
									OFFSET -18.578728 -0.527832 5.208049
									CHANNELS 3 Xrotation Yrotation Zrotation
									JOINT newVegas:RightHandIndex2
									{
										OFFSET -3.192009 0.000000 0.000000
										CHANNELS 3 Xrotation Yrotation Zrotation
										JOINT newVegas:RightHandIndex3
										{
											OFFSET -3.835129 0.000000 0.000000
											CHANNELS 3 Xrotation Yrotation Zrotation
											End Site
											{
												OFFSET 0.034599 3.816971 0.371180
											}
										}
									}
								}
								JOINT newVegas:RightHandMiddle1
								{
									OFFSET -18.476105 0.000000 0.000000
									CHANNELS 3 Xrotation Yrotation Zrotation
									JOINT newVegas:RightHandMiddle2
									{
										OFFSET -3.324875 0.000000 0.000000
										CHANNELS 3 Xrotation Yrotation Zrotation
										JOINT newVegas:RightHandMiddle3
										{
											OFFSET -4.596550 0.000000 0.000000
											CHANNELS 3 Xrotation Yrotation Zrotation
											End Site
											{
												OFFSET -0.057701 4.578827 0.399218
											}
										}
									}
								}
								JOINT newVegas:RightHandRing1
								{
									OFFSET -17.732719 0.121887 -4.201567
									CHANNELS 3 Xrotation Yrotation Zrotation
									JOINT newVegas:RightHandRing2
									{
										OFFSET -2.733170 0.000000 0.000000
										CHANNELS 3 Xrotation Yrotation Zrotation
										JOINT newVegas:RightHandRing3
										{
											OFFSET -3.178268 0.000000 0.000000
											CHANNELS 3 Xrotation Yrotation Zrotation
											End Site
											{
												OFFSET -0.119102 3.170624 0.185394
											}
										}
									}
								}
								JOINT newVegas:RightHandPinky1
								{
									OFFSET -15.989624 -0.606689 -7.535461
									CHANNELS 3 Xrotation Yrotation Zrotation
									JOINT newVegas:RightHandPinky2
									{
										OFFSET -2.538986 0.000000 0.000000
										CHANNELS 3 Xrotation Yrotation Zrotation
										JOINT newVegas:RightHandPinky3
										{
											OFFSET -2.593102 0.000000 0.000000
											CHANNELS 3 Xrotation Yrotation Zrotation
											End Site
											{
												OFFSET 0.150902 2.584198 0.152708
											}
										}
									}
								}
							}
							JOINT newVegas:Right_CapeC
							{
								OFFSET -15.715958 -8.608795 -6.935905
								CHANNELS 3 Xrotation Yrotation Zrotation
								JOINT newVegas:Right_CapeC1
								{
									OFFSET 0.000000 -8.688499 0.000000
									CHANNELS 3 Xrotation Yrotation Zrotation
									End Site
									{
										OFFSET 0.000000 8.688499 0.000000
									}
								}
							}
							JOINT newVegas:Right_Sleeve
							{
								OFFSET -0.267448 -0.649994 0.577675
								CHANNELS 3 Xrotation Yrotation Zrotation
								End Site
								{
									OFFSET 0.000000 15.991302 0.000000
								}
							}
						}
						JOINT newVegas:Right_CapeA
						{
							OFFSET -5.115540 -8.608795 -10.395824
							CHANNELS 3 Xrotation Yrotation Zrotation
							JOINT newVegas:Right_CapeA1
							{
								OFFSET 0.000000 -8.688499 0.000000
								CHANNELS 3 Xrotation Yrotation Zrotation
								End Site
								{
									OFFSET 0.000000 8.688499 0.000000
								}
							}
						}
						JOINT newVegas:Right_CapeB
						{
							OFFSET -26.118187 -8.608795 -7.079266
							CHANNELS 3 Xrotation Yrotation Zrotation
							JOINT newVegas:Right_CapeB1
							{
								OFFSET 0.000000 -8.688499 0.000000
								CHANNELS 3 Xrotation Yrotation Zrotation
								End Site
								{
									OFFSET 0.000000 8.688499 0.000000
								}
							}
						}
					}
				}
				JOINT newVegas:Left_Collar
				{
					OFFSET 18.625099 8.655502 8.828100
					CHANNELS 3 Xrotation Yrotation Zrotation
					JOINT newVegas:Left_Collar1
					{
						OFFSET 14.783401 10.540405 -1.259500
						CHANNELS 3 Xrotation Yrotation Zrotation
						End Site
						{
							OFFSET 0.000000 18.199875 0.000000
						}
					}
				}
				JOINT newVegas:Collar_Back
				{
					OFFSET 0.000000 15.630707 -20.132601
					CHANNELS 3 Xrotation Yrotation Zrotation
					End Site
					{
						OFFSET 0.000000 22.523010 0.000000
					}
				}
				JOINT newVegas:Left_Peck
				{
					OFFSET 17.239599 -5.132599 25.482599
					CHANNELS 3 Xrotation Yrotation Zrotation
					End Site
					{
						OFFSET 0.000000 22.523010 0.000000
					}
				}
				JOINT newVegas:Right_Peck
				{
					OFFSET -17.239599 -5.132202 25.482599
					CHANNELS 3 Xrotation Yrotation Zrotation
					End Site
					{
						OFFSET 0.000000 22.523010 0.000000
					}
				}
				JOINT newVegas:Right_Collar
				{
					OFFSET -18.625099 8.655792 8.828100
					CHANNELS 3 Xrotation Yrotation Zrotation
					JOINT newVegas:Right_Collar1
					{
						OFFSET -14.783401 10.539993 -1.259500
						CHANNELS 3 Xrotation Yrotation Zrotation
						End Site
						{
							OFFSET 0.000000 18.199631 0.000000
						}
					}
				}
			}
		}
		JOINT newVegas:Belly
		{
			OFFSET 0.000000 -6.540398 9.014299
			CHANNELS 3 Xrotation Yrotation Zrotation
			End Site
			{
				OFFSET 0.000000 11.566666 0.000000
			}
		}
	}
	JOINT newVegas:ElvisFacialAnim_Joint
	{
		OFFSET 1.000000 -95.330101 -8.825800
		CHANNELS 3 Xrotation Yrotation Zrotation
		End Site
		{
			OFFSET 0.000000 35.315800 0.000000
		}
	}
}
MOTION
Frames: 4
Frame Time: 0.033333
-1.035483 89.827232 2.756203 5.048373 -15.557747 0.313353 -0.000000 0.000001 -0.000000 -39.841187 1.353325 11.205643 35.806563 4.186833 1.508227 0.118277 0.612148 -7.710156 -0.000000 0.000000 -0.000000 0.000000 0.000000 -0.000000 -13.249680 -10.206201 -14.508310 32.034605 -5.746355 1.668699 -20.404393 -3.421254 13.642595 0.000000 0.000001 -0.000000 0.000000 0.000003 -0.000001 23.100224 4.232143 -0.406399 3.699075 1.240285 -0.840910 3.692184 1.313817 -0.845958 -2.535800 0.264611 0.436102 -2.535787 0.264610 0.436106 -0.000003 0.000000 -0.000000 -2.535772 0.264604 0.436105 -2.535708 0.264618 0.436104 -0.000001 0.000000 -0.000000 -0.000003 0.000000 -0.000000 7.812692 -20.949865 9.748528 -33.643562 -3.123701 -85.447162 0.000005 -42.998240 -4.823141 -17.287053 -10.866557 -12.599022 -7.471931 1.860678 -7.166912 30.986984 27.310542 -4.510876 0.000000 -0.000004 -0.000007 -4.707392 11.366692 -75.214453 -0.816399 3.073996 -46.874615 0.000001 -0.000001 0.000002 1.623341 16.580930 -84.691279 0.018014 0.022028 -72.884867 0.000001 -0.000001 -0.000000 -6.443159 23.132620 -76.210172 0.012873 0.975924 -51.002986 -0.000000 -0.000001 -0.000001 -17.098965 22.128963 -43.123185 0.019728 0.026998 -78.662899 0.000001 -0.000003 -0.000003 -0.000001 0.000000 0.000002 -0.000001 0.000000 0.000002 -0.000002 0.000000 0.000002 0.000002 0.000000 0.000000 0.000002 0.000000 0.000001 0.000002 0.000000 0.000000 0.000000 -0.000000 0.000000 13.916964 27.241163 -23.493059 -43.128762 -5.410764 84.810958 0.000009 58.104556 5.767286 -18.206800 16.096507 8.636259 9.347171 2.810546 -11.364501 16.169015 -43.266014 15.843536 -0.000000 -0.000001 0.000001 17.076789 -0.396551 31.924349 -0.204406 -0.284227 112.811571 -0.000000 0.000000 -0.000000 9.205459 -5.035860 102.738100 0.014970 -0.019200 61.018519 -0.000000 0.000001 0.000000 5.569130 -8.935207 107.329101 0.547985 -0.005775 41.263703 0.000000 -0.000003 -0.000000 6.511246 -17.148272 98.228038 0.007398 -0.015746 43.845747 0.000001 0.000003 0.000001 0.000001 0.000002 -0.000000 0.000000 -0.000002 -0.000003 0.000001 0.000001 0.000001 0.000000 0.000000 0.000000 0.000000 0.000000 0.000000 0.000000 0.000000 0.000000 0.000000 -0.000000 0.000000 0.000003 0.000000 -0.000000 0.000003 0.000000 -0.000000 0.000003 0.000000 -0.000000 0.000003 0.000000 -0.000000 0.000003 0.000000 -0.000000 0.000003 0.000000 -0.000000 0.000003 0.000000 -0.000000 -0.000001 -0.000000 0.000000 -0.000000 0.000001 -0.000000 
-1.395921 89.806427 2.246063 4.563700 -16.040049 0.429479 -0.000000 -0.000000 -0.000000 -39.308459 1.834075 11.963884 35.299131 3.871226 0.999590 0.611309 0.588915 -7.728124 -0.000000 -0.000000 0.000000 -0.000000 0.000000 0.000000 -14.090389 -10.134299 -14.753606 33.597383 -5.019509 1.944714 -20.949290 -3.287531 12.905038 0.000000 0.000003 -0.000000 -0.000000 -0.000003 -0.000001 23.634420 4.239323 -0.208316 3.688603 1.254722 -0.967155 3.682273 1.324785 -0.975951 -2.919143 0.290359 0.274800 -2.919152 0.290361 0.274801 0.000002 0.000000 0.000000 -2.919202 0.290368 0.274801 -2.919060 0.290354 0.274801 0.000002 -0.000000 -0.000000 0.000002 0.000000 0.000000 8.007403 -21.466573 10.766149 -32.651098 -2.912569 -85.672654 -0.000011 -43.942825 -4.816937 -18.345084 -11.235922 -12.062698 -7.471927 1.860682 -7.166907 30.986977 27.310539 -4.510884 -0.000000 -0.000004 -0.000003 -4.707394 11.366700 -75.214453 -0.816399 3.073993 -46.874615 0.000000 -0.000000 0.000001 1.623342 16.580933 -84.691279 0.018010 0.022035 -72.884867 -0.000000 -0.000003 -0.000000 -6.443162 23.132626 -76.210172 0.012874 0.975928 -51.002979 -0.000000 -0.000001 0.000001 -17.098964 22.128963 -43.123181 0.019726 0.026998 -78.662899 -0.000000 -0.000005 -0.000004 0.000002 0.000005 0.000001 0.000002 0.000005 0.000001 0.000002 0.000005 0.000001 -0.000001 0.000000 -0.000000 -0.000001 0.000000 -0.000000 -0.000001 0.000000 -0.000000 -0.000003 0.000000 -0.000000 13.899133 26.758639 -24.003641 -43.092452 -4.134911 85.458979 0.000019 58.121870 5.529114 -18.552667 16.249097 8.162155 9.347171 2.810549 -11.364499 16.169025 -43.266014 15.843546 -0.000002 -0.000001 -0.000002 17.076791 -0.396551 31.924352 -0.204406 -0.284228 112.811571 -0.000000 0.000000 -0.000001 9.205456 -5.035864 102.738094 0.014970 -0.019200 61.018526 0.000000 0.000000 0.000001 5.569131 -8.935205 107.329108 0.547983 -0.005776 41.263700 -0.000000 -0.000001 -0.000000 6.511241 -17.148276 98.228038 0.007397 -0.015742 43.845740 0.000000 -0.000002 -0.000001 -0.000002 -0.000000 0.000001 -0.000000 -0.000004 -0.000002 -0.000002 -0.000001 0.000001 0.000000 0.000000 -0.000000 0.000000 0.000000 -0.000000 0.000000 0.000000 -0.000000 0.000000 -0.000000 -0.000000 0.000001 -0.000000 -0.000000 0.000001 -0.000000 -0.000000 0.000001 -0.000000 -0.000000 0.000001 -0.000000 -0.000000 0.000001 -0.000000 -0.000000 0.000001 -0.000000 -0.000000 0.000001 -0.000000 -0.000000 0.000001 -0.000000 -0.000000 -0.000000 -0.000000 -0.000000 
-1.774970 89.675385 1.530841 4.538124 -16.651526 0.726673 -0.000000 -0.000000 -0.000000 -39.337990 2.161093 12.739420 34.766025 3.792452 0.458135 1.322220 0.560521 -7.832879 -0.000000 -0.000000 -0.000000 -0.000000 0.000000 -0.000001 -15.909555 -9.730024 -14.887225 35.803473 -4.444452 2.027078 -21.580147 -3.168078 12.192693 0.000000 0.000000 0.000000 -0.000001 0.000005 -0.000002 24.433605 4.214441 -0.055663 3.601870 1.277358 -1.141584 3.595576 1.344449 -1.156500 -3.470859 0.315927 0.134831 -3.470855 0.315926 0.134831 0.000001 -0.000000 -0.000000 -3.470840 0.315921 0.134831 -3.470856 0.315935 0.134829 0.000001 -0.000000 0.000001 0.000001 -0.000000 -0.000000 8.003201 -21.961087 11.157290 -31.801491 -2.921194 -85.495739 -0.000057 -45.196796 -4.643530 -19.299700 -11.665559 -11.259353 -7.471928 1.860677 -7.166907 30.986980 27.310537 -4.510883 0.000002 -0.000003 -0.000005 -4.707389 11.366690 -75.214453 -0.816400 3.073995 -46.874618 -0.000001 -0.000001 0.000001 1.623343 16.580933 -84.691279 0.018011 0.022034 -72.884867 0.000001 0.000000 -0.000000 -6.443162 23.132620 -76.210172 0.012874 0.975927 -51.002986 -0.000000 -0.000001 0.000000 -17.098964 22.128963 -43.123185 0.019728 0.026998 -78.662899 0.000000 -0.000001 -0.000003 -0.000001 0.000001 0.000001 -0.000001 0.000001 0.000001 -0.000002 0.000001 0.000001 -0.000001 -0.000001 0.000000 -0.000001 -0.000001 0.000000 -0.000001 -0.000001 0.000000 -0.000003 -0.000001 0.000000 13.792157 25.909824 -24.431447 -43.697426 -2.645840 85.898447 0.000050 58.034922 5.578137 -18.751075 16.532099 7.937937 9.347173 2.810548 -11.364499 16.169018 -43.266018 15.843532 0.000001 -0.000001 0.000001 17.076789 -0.396552 31.924352 -0.204406 -0.284228 112.811571 -0.000001 0.000001 -0.000000 9.205460 -5.035863 102.738094 0.014967 -0.019198 61.018519 0.000001 0.000002 -0.000000 5.569133 -8.935207 107.329101 0.547987 -0.005774 41.263707 -0.000000 -0.000001 0.000000 6.511245 -17.148272 98.228038 0.007399 -0.015738 43.845740 -0.000000 -0.000002 0.000001 -0.000000 -0.000000 -0.000001 0.000000 0.000003 -0.000003 -0.000000 -0.000001 -0.000001 0.000000 0.000001 0.000000 0.000000 0.000001 0.000000 0.000000 0.000001 0.000000 0.000000 0.000001 0.000000 0.000002 -0.000000 -0.000000 0.000002 -0.000000 -0.000000 0.000002 -0.000000 -0.000000 0.000002 -0.000000 -0.000000 0.000002 -0.000000 -0.000000 0.000002 -0.000000 -0.000000 0.000002 -0.000000 -0.000000 0.000001 -0.000000 0.000000 -0.000000 -0.000000 -0.000000 
-2.203298 89.252548 0.427744 5.662223 -17.561089 1.331972 0.000000 -0.000000 0.000000 -40.974599 2.215475 13.833297 34.679104 3.981099 -0.187847 2.226309 0.530937 -8.076913 0.000000 0.000000 -0.000000 -0.000000 -0.000000 0.000000 -19.826402 -8.689980 -14.572805 39.193254 -4.198196 1.749677 -22.325868 -3.070887 11.518473 0.000000 -0.000001 0.000000 -0.000001 0.000003 -0.000003 25.430276 4.244729 -0.203202 3.394644 1.331231 -1.319642 3.386656 1.399377 -1.344802 -4.286982 0.355912 0.082141 -4.286981 0.355913 0.082136 0.000001 0.000001 -0.000000 -4.286966 0.355902 0.082140 -4.287037 0.355934 0.082135 0.000001 -0.000000 0.000000 0.000001 0.000001 -0.000000 7.703047 -22.383973 10.442278 -31.531032 -3.774019 -84.288496 -0.000755 -47.694460 -3.881616 -20.031372 -11.374570 -9.799194 -7.471932 1.860677 -7.166914 30.986984 27.310547 -4.510874 -0.000002 -0.000003 -0.000001 -4.707391 11.366696 -75.214460 -0.816399 3.073995 -46.874615 -0.000000 0.000000 -0.000001 1.623346 16.580931 -84.691286 0.018007 0.022031 -72.884867 -0.000002 -0.000001 -0.000001 -6.443161 23.132621 -76.210178 0.012870 0.975923 -51.002979 0.000000 -0.000001 0.000001 -17.098962 22.128964 -43.123195 0.019724 0.026999 -78.662899 0.000002 0.000000 -0.000002 0.000001 -0.000003 -0.000002 0.000001 -0.000003 -0.000002 0.000001 -0.000003 -0.000001 -0.000001 -0.000001 -0.000000 -0.000001 -0.000001 -0.000000 -0.000001 -0.000001 -0.000000 -0.000003 -0.000001 -0.000000 13.541101 24.386835 -24.531188 -45.662424 -0.805272 85.515130 0.000087 58.245818 6.090583 -19.162236 16.819477 8.117778 9.347171 2.810547 -11.364496 16.169020 -43.266018 15.843534 0.000004 -0.000003 0.000001 17.076791 -0.396552 31.924352 -0.204404 -0.284227 112.811571 0.000001 -0.000001 -0.000000 9.205457 -5.035865 102.738094 0.014970 -0.019201 61.018519 -0.000000 0.000001 -0.000001 5.569133 -8.935207 107.329101 0.547987 -0.005776 41.263700 0.000000 -0.000003 0.000000 6.511243 -17.148274 98.228038 0.007401 -0.015741 43.845740 0.000001 -0.000000 0.000001 -0.000001 -0.000001 -0.000001 -0.000000 -0.000001 -0.000002 -0.000001 -0.000001 0.000000 0.000003 0.000000 -0.000000 0.000003 0.000000 -0.000000 0.000003 0.000000 -0.000000 0.000003 -0.000000 -0.000000 0.000001 0.000000 -0.000000 0.000001 0.000000 -0.000000 0.000001 0.000000 -0.000000 0.000001 0.000000 -0.000000 0.000001 0.000000 -0.000000 0.000001 0.000000 -0.000000 0.000001 0.000000 -0.000000 -0.000000 0.000001 -0.000000 0.000000 -0.000000 0.000000 
